<?xml version="1.0" encoding="UTF-8"?>
<svg width="94px" height="26px" viewBox="0 0 94 26" version="1.1" xmlns="http://www.w3.org/2000/svg" xmlns:xlink="http://www.w3.org/1999/xlink">
    <!-- Generator: sketchtool 50.2 (55047) - http://www.bohemiancoding.com/sketch -->
    <title>5F206461-8987-47C0-88E8-DA1462259D70</title>
    <desc>Created with sketchtool.</desc>
    <defs></defs>
    <g id="bsbv" stroke="none" stroke-width="1" fill="none" fill-rule="evenodd">
        <g id="Main-Desktop" transform="translate(-15.000000, -19.000000)">
            <g id="bsbv-logo" transform="translate(15.000000, 19.000000)">
                <g id="Group" transform="translate(12.250000, 12.750000) scale(-1, 1) rotate(-180.000000) translate(-12.250000, -12.750000) " fill-rule="nonzero">
                    <polygon id="Shape" fill="#8C191B" points="0 22.2117751 0 18.9489611 3.04238803 18.9489611 6.08477606 18.9489611 6.08477606 22.2117751 6.08477606 25.4745891 3.04238803 25.4745891 0 25.4745891"></polygon>
                    <polygon id="Shape" fill="#3D434F" points="9.12716434 22.2117751 9.12716434 18.9489611 13.6645188 18.9489611 18.2018743 18.9489611 18.2018743 14.1363125 18.2018743 9.32366391 21.3491728 9.32366391 24.4964693 9.32366391 24.4964693 17.3991265 24.4964693 25.4745892 16.8118173 25.4745892 9.12716434 25.4745892"></polygon>
                    <polygon id="Shape" fill="#3D434F" points="0 7.93697408 0 0.0246562826 7.60597046 0.0246562826 15.2119409 0.0246562826 15.2119409 3.1787071 15.2119409 6.33275792 10.6483582 6.33275792 6.08477606 6.33275792 6.08477606 11.0910249 6.08477606 15.8492919 3.04238803 15.8492919 0 15.8492919"></polygon>
                    <polygon id="Shape" fill="#8C191B" points="9.12716434 12.5864779 9.12716434 9.32366388 12.2744628 9.32366388 15.4217603 9.32366388 15.4217603 12.5864779 15.4217603 15.8492919 12.2744628 15.8492919 9.12716434 15.8492919 9.12716434 12.5864779"></polygon>
                    <polygon id="Shape" fill="#8C191B" points="18.2018743 3.17870707 18.2018743 0.024656249 21.3491728 0.024656249 24.4964693 0.024656249 24.4964693 3.17870707 24.4964693 6.33275789 21.3491728 6.33275789 18.2018743 6.33275789"></polygon>
                </g>
                <g id="Group" transform="translate(29.400000, 0.000000)" fill="#3D434F" fill-rule="nonzero">
                    <path d="M8.83823741,0.581307067 C9.65263634,0.581307067 10.3952956,0.6540376 11.0660597,0.799815352 C11.7368237,0.945593105 12.3116749,1.18465552 12.7907697,1.51621219 C13.2698646,1.84824356 13.6411944,2.28952891 13.9047588,2.83975189 C14.1683232,3.39044956 14.2999497,4.07048097 14.2999497,4.87984676 C14.2999497,5.75403792 14.1043816,6.48260935 13.7130899,7.06556137 C13.3214861,7.64835537 12.7428916,8.12616417 11.9763711,8.49835537 C13.0303175,8.8061959 13.8168002,9.34456065 14.3358196,10.1134502 C14.854839,10.8824972 15.1143487,11.8096549 15.1143487,12.8941322 C15.1143487,13.768323 14.9468526,14.5253544 14.6115486,15.1647516 C14.2759327,15.8046231 13.8245979,16.3267029 13.2578562,16.7313067 C12.6908025,17.1360686 12.0440557,17.4355293 11.3176157,17.6298464 C10.5907078,17.8241639 9.84430557,17.9212433 9.07778515,17.9212433 L0.789382027,17.9212433 L0.789382027,0.581307067 L8.83823741,0.581307067 Z M8.35914259,7.59981535 C9.02990664,7.59981535 9.58089668,7.43822695 10.0119575,7.11410107 C10.4431741,6.79044956 10.6588604,6.26410107 10.6588604,5.53552964 C10.6588604,5.13108377 10.5869648,4.7990524 10.4431741,4.53975189 C10.2995392,4.28108377 10.10787,4.07838646 9.86832259,3.93260903 C9.62877518,3.78698962 9.35320207,3.68595716 9.04191532,3.6290376 C8.73047238,3.57259242 8.40702109,3.54413248 8.07171699,3.54413248 L4.55040131,3.54413248 L4.55040131,7.59981535 L8.35914259,7.59981535 Z M8.57467298,14.9584179 C8.94194771,14.9584179 9.29331522,14.9218944 9.62877518,14.8491639 C9.96407928,14.776275 10.2594585,14.6548464 10.5150693,14.4848782 C10.7703681,14.3147516 10.9738898,14.084069 11.1259465,13.7926722 C11.277535,13.5012753 11.3534853,13.1289258 11.3534853,12.6754662 C11.3534853,11.7853063 11.1056722,11.1497035 10.610826,10.7691325 C10.1156678,10.3888778 9.46112329,10.1983557 8.6465685,10.1983557 L4.55040131,10.1983557 L4.55040131,14.9584182 L8.57467298,14.9584182 L8.57467298,14.9584179 Z" id="Shape"></path>
                    <path d="M20.5281825,13.6468944 C20.7352914,14.0518143 21.0110203,14.379735 21.354746,14.6304976 C21.6978478,14.8817346 22.1008365,15.0676722 22.5643355,15.1891007 C23.0272111,15.3105293 23.5063059,15.3712436 24.00162,15.3712436 C24.3366121,15.3712436 24.6959332,15.3431 25.0795834,15.2861805 C25.4626098,15.2297353 25.8219309,15.120481 26.1575467,14.9584182 C26.4925388,14.7966714 26.7720108,14.5740524 26.9959627,14.290561 C27.2192908,14.0073857 27.3309547,13.6468947 27.3309547,13.2098785 C27.3309547,12.7404496 27.1831089,12.3598785 26.8880415,12.0683233 C26.5923502,11.7769265 26.2055808,11.5340693 25.726486,11.3397519 C25.2473911,11.1455928 24.7040427,10.9754662 24.0970646,10.8298468 C23.4900863,10.6840693 22.8756223,10.5224806 22.2530485,10.3441331 C21.6136316,10.1823864 20.9910577,9.98395817 20.3840797,9.74916486 C19.7771014,9.51452956 19.234377,9.21095813 18.7552822,8.83845057 C18.2761874,8.46610135 17.8887942,8.00046682 17.5937267,7.442022 C17.2980354,6.88341884 17.1501896,6.20749819 17.1501896,5.41410171 C17.1501896,4.52394156 17.33796,3.75046682 17.7135004,3.09478394 C18.088417,2.43910139 18.5793646,1.89267282 19.1863427,1.45549823 C19.7933207,1.01832364 20.4801481,0.694672457 21.2468247,0.484069657 C22.0135014,0.273941238 22.7795539,0.168323638 23.5462305,0.168323638 C24.4407903,0.168323638 25.2985447,0.269672133 26.1213652,0.471895067 C26.9435618,0.674592381 27.6746804,1.00251267 28.3134735,1.45549823 C28.9516428,1.90895817 29.4588097,2.48764109 29.8343501,3.19202135 C30.2092667,3.89624392 30.3976608,4.75035469 30.3976608,5.75403792 L26.7564153,5.75403792 C26.7239767,5.2360693 26.6160555,4.80695789 26.4326519,4.46702135 C26.2492484,4.12692648 26.0053342,3.8598785 25.7021572,3.66556105 C25.3989802,3.4712436 25.0515116,3.33384604 24.6603754,3.25273564 C24.2686157,3.17178326 23.8419217,3.13130707 23.3784224,3.13130707 C23.0752451,3.13130707 22.7714441,3.16387777 22.4682671,3.22838678 C22.1650898,3.29321183 21.8893609,3.40673491 21.6417036,3.56832364 C21.3940464,3.73038642 21.1906809,3.93260935 21.0309826,4.1754665 C20.8712844,4.41832364 20.7914352,4.72616417 20.7914352,5.09835537 C20.7914352,5.43845057 20.8550651,5.71387842 20.9829483,5.92416486 C21.1108318,6.13476766 21.3622317,6.32892676 21.7377721,6.50695886 C22.1126887,6.68530699 22.6317081,6.86333909 23.2948303,7.04121284 C23.9573286,7.21956097 24.8238164,7.44613276 25.8936702,7.72124457 C26.2130668,7.78606962 26.6566038,7.90338743 27.2236573,8.0733557 C27.7900873,8.24332396 28.3527739,8.51464105 28.9123417,8.88699027 C29.4712856,9.25965585 29.9541235,9.75738638 30.3614786,10.3804979 C30.7688341,11.0039261 30.9721997,11.8012753 30.9721997,12.7727039 C30.9721997,13.5661004 30.8206112,14.3027356 30.5174339,14.982609 C30.2136329,15.6626408 29.7626101,16.2497035 29.1637416,16.7433233 C28.564873,17.2374175 27.8225255,17.6217833 26.9360755,17.8968947 C26.0496255,18.1720062 25.0234392,18.3098785 23.8575169,18.3098785 C22.9155465,18.3098785 22.0010244,18.1922446 21.1151979,17.957609 C20.2287476,17.7231318 19.445852,17.3547353 18.7671344,16.8527356 C18.0884167,16.3510524 17.549435,15.7111805 17.1501893,14.9340693 C16.7509436,14.1569582 16.5594306,13.2340693 16.5756499,12.165561 L20.2168954,12.165561 C20.2168954,12.7483547 20.3204499,13.2424489 20.5281825,13.6468944 Z" id="Shape"></path>
                    <path d="M41.2487217,0.581307067 C42.0631207,0.581307067 42.8057799,0.6540376 43.4763878,0.799815352 C44.1473077,0.945592781 44.7221592,1.18465552 45.2012541,1.51621219 C45.6803489,1.84824356 46.0515225,2.28952891 46.3150873,2.83975189 C46.5786517,3.39044956 46.7102782,4.07048097 46.7102782,4.87984676 C46.7102782,5.75403792 46.5147101,6.48260935 46.1235742,7.06556137 C45.7321263,7.64835537 45.15322,8.12616417 44.3868555,8.49835537 C45.4408018,8.8061959 46.2271287,9.34456065 46.7464598,10.1134502 C47.2651671,10.8824972 47.5249889,11.8096549 47.5249889,12.8941322 C47.5249889,13.768323 47.3571808,14.5253544 47.021877,15.1647516 C46.6865729,15.8046231 46.2349264,16.3267029 45.6684964,16.7313067 C45.1014427,17.1360686 44.4545401,17.4355293 43.7281001,17.6298464 C43.0010363,17.8241639 42.2549458,17.9212433 41.4882695,17.9212433 L33.1998667,17.9212433 L33.1998667,0.581307067 L41.2487217,0.581307067 Z M40.7696269,7.59981535 C41.4402348,7.59981535 41.991381,7.43822695 42.4224418,7.11410107 C42.8538143,6.79044956 43.0693447,6.26410107 43.0693447,5.53552964 C43.0693447,5.13108377 42.9972933,4.7990524 42.8538143,4.53975189 C42.7100236,4.28108377 42.5181985,4.07838646 42.2786511,3.93260903 C42.0391037,3.78698962 41.7636864,3.68595716 41.4523997,3.6290376 C41.1408008,3.57259242 40.8176613,3.54413248 40.4820455,3.54413248 L36.9608856,3.54413248 L36.9608856,7.59981535 L40.7696269,7.59981535 Z M40.9851573,14.9584179 C41.3522762,14.9584179 41.7037996,14.9218944 42.0391037,14.8491639 C42.3747195,14.776275 42.669787,14.6548464 42.925554,14.4848782 C43.1806969,14.3147516 43.3843745,14.084069 43.536275,13.7926722 C43.6878635,13.5012753 43.7639699,13.1289258 43.7639699,12.6754662 C43.7639699,11.7853063 43.5163127,11.1497035 43.0213106,10.7691325 C42.5263083,10.3888778 41.8716079,10.1983557 41.057209,10.1983557 L36.960886,10.1983557 L36.960886,14.9584182 L40.9851573,14.9584182 L40.9851573,14.9584179 Z" id="Shape"></path>
                    <polygon id="Shape" points="53.7769317 17.9212433 48.2433191 0.581307067 52.1000998 0.581307067 55.9088414 12.7727039 55.9568758 12.7727039 59.8136514 0.581307067 63.6941324 0.581307067 58.0170458 17.9212439 53.7769317 17.9212439"></polygon>
                </g>
                <g id="Group" transform="translate(29.400000, 21.857143)">
                    <rect id="Rectangle-path" x="0.305966306" y="0.168058357" width="68.0692914" height="11.7870584"></rect>
                    <polygon id="Shape" fill="#8C191B" fill-rule="nonzero" points="2.88056102 0.167882286 2.88056102 0.507917804 1.08592512 0.507917804 1.08592512 1.47258705 2.75884272 1.47258705 2.75884272 1.81262257 1.08592512 1.81262257 1.08592512 2.862375 2.89408521 2.862375 2.89408521 3.20241052 0.657552578 3.20241052 0.657552578 0.167881982 2.88056102 0.167881982"></polygon>
                    <polygon id="Shape" fill="#8C191B" fill-rule="nonzero" points="9.54471092 0.167882286 10.0586322 0.167882286 10.8612805 1.35370818 11.699941 0.167882286 12.1778501 0.167882286 11.113838 1.64260496 12.2454713 3.20241082 11.7224292 3.20241082 10.8567204 1.94869634 9.96396288 3.20241082 9.48605373 3.20241082 10.60432 1.64260496"></polygon>
                    <path d="M20.4292114,0.167882286 C20.7537931,0.167882286 20.9994314,0.246591375 21.1664398,0.403713268 C21.333134,0.560983304 21.416481,0.781398929 21.416481,1.06466295 C21.416481,1.34807541 21.333134,1.56908361 21.1664398,1.72768784 C20.999431,1.88644021 20.7537931,1.96426014 20.4292114,1.96144391 L19.4460304,1.96144391 L19.4460304,3.20241082 L19.0176579,3.20241082 L19.0176579,0.167882286 L20.4292114,0.167882286 Z M20.284848,1.62140839 C20.5282843,1.62422462 20.7063013,1.57753291 20.819213,1.4811845 C20.9318101,1.38483609 20.9881088,1.24594639 20.9881088,1.06466325 C20.9881088,0.883380107 20.9318101,0.745231429 20.819213,0.650217214 C20.7063013,0.555351143 20.5282846,0.507918107 20.284848,0.507918107 L19.4460304,0.507918107 L19.4460304,1.6214087 L20.284848,1.6214087 L20.284848,1.62140839 Z" id="Shape" fill="#8C191B" fill-rule="nonzero"></path>
                    <polygon id="Shape" fill="#8C191B" fill-rule="nonzero" points="30.5874917 0.167882286 30.5874917 0.507917804 28.7928558 0.507917804 28.7928558 1.47258705 30.4657734 1.47258705 30.4657734 1.81262257 28.7928558 1.81262257 28.7928558 2.862375 30.6010159 2.862375 30.6010159 3.20241052 28.3644832 3.20241052 28.3644832 0.167881982 30.5874917 0.167881982"></polygon>
                    <path d="M39.0596445,0.167882286 C39.3662987,0.167882286 39.605961,0.23873525 39.7789454,0.380441482 C39.9516155,0.522147714 40.0381079,0.716178429 40.0381079,0.962682071 C40.0381079,1.14692989 39.993761,1.30835036 39.905067,1.44709191 C39.816373,1.58598191 39.6745259,1.68084798 39.4788961,1.73183827 L39.4788961,1.74043541 C39.5719931,1.75748155 39.6481066,1.78579323 39.7066066,1.82537014 C39.7654213,1.8650952 39.8119697,1.91252823 39.8465667,1.96781739 C39.880849,2.02310655 39.9066394,2.08462136 39.9229945,2.15265809 C39.939664,2.22069482 39.9525592,2.29154809 39.9613657,2.36521729 C39.9673417,2.43888679 39.9720593,2.51389018 39.9748899,2.59037591 C39.9780352,2.66686164 39.9855835,2.74201348 39.997535,2.81568298 C40.0094865,2.88935248 40.026785,2.95946443 40.0494304,3.02601882 C40.0720758,3.09257321 40.1057291,3.15141993 40.1507049,3.20241082 L39.6729533,3.20241052 C39.6427596,3.17128261 39.6226305,3.12874102 39.611937,3.0749342 C39.6015578,3.02112737 39.5946385,2.96094677 39.5918079,2.89424393 C39.5886626,2.82768954 39.5855176,2.75609525 39.582687,2.67960952 C39.5795417,2.60312379 39.5707354,2.52812039 39.5556386,2.45445089 C39.5436871,2.38078139 39.5285902,2.31066945 39.5106628,2.24396691 C39.4924206,2.17756066 39.4637996,2.11945527 39.4247994,2.06979887 C39.3857992,2.02029062 39.3348474,1.98056557 39.2716294,1.95077155 C39.2084115,1.92097754 39.1244354,1.90615475 39.0190719,1.90615475 L37.9729873,1.90615475 L37.9729873,3.20241082 L37.5446148,3.20241082 L37.5446148,0.167882286 L39.0596445,0.167882286 Z M39.1499111,1.54492266 C39.2401775,1.53069275 39.3188069,1.50312239 39.3864282,1.46206314 C39.4543641,1.42100389 39.5084608,1.36571473 39.5490337,1.29634411 C39.5896065,1.22682504 39.6097357,1.13685041 39.6097357,1.02642054 C39.6097357,0.873449071 39.5647598,0.748788982 39.4744932,0.652440571 C39.3842265,0.556092161 39.2386051,0.507918107 39.0369997,0.507918107 L37.9729876,0.507918107 L37.9729876,1.56611954 L38.8659023,1.56611954 C38.9649749,1.56611923 39.0596445,1.55915257 39.1499111,1.54492266 Z" id="Shape" fill="#8C191B" fill-rule="nonzero"></path>
                    <polygon id="Shape" fill="#8C191B" fill-rule="nonzero" points="46.634794 0.507917804 46.634794 0.167882286 49.2094329 0.167882286 49.2094329 0.507917804 48.1362999 0.507917804 48.1362999 3.20241082 47.7079273 3.20241082 47.7079273 0.507917804"></polygon>
                    <path d="M57.6023321,0.582328625 C57.4595413,0.484497875 57.277121,0.435730946 57.0547575,0.435730946 C56.9644912,0.435730946 56.8757972,0.444179946 56.7886758,0.461226089 C56.7012401,0.478124089 56.6238687,0.506583911 56.5562474,0.546160821 C56.4886262,0.585885875 56.4345291,0.638951679 56.3939566,0.705506071 C56.3533837,0.772208911 56.3332546,0.855068429 56.3332546,0.954233071 C56.3332546,1.0476168 56.3625046,1.12350966 56.421005,1.18146691 C56.4798196,1.2395723 56.5578201,1.28715379 56.655635,1.32391416 C56.7531352,1.36082298 56.863531,1.39120988 56.9868216,1.41522268 C57.1101122,1.43938393 57.2356048,1.46562039 57.3636134,1.49393177 C57.4913073,1.52224345 57.6167999,1.55559471 57.7400905,1.59383773 C57.8630668,1.63208075 57.9737769,1.68381236 58.0712772,1.74888441 C58.1690921,1.81410491 58.2470922,1.89622341 58.3059072,1.99538805 C58.3644075,2.0945527 58.3936575,2.21921279 58.3936575,2.36936802 C58.3936575,2.53093693 58.3552863,2.66908561 58.2788588,2.78381405 C58.2021167,2.8985428 58.1036728,2.99207468 57.9835271,3.06426184 C57.8630671,3.13659714 57.728768,3.18907007 57.5800013,3.22153188 C57.4312346,3.25414213 57.283097,3.27044725 57.1359029,3.27044725 C56.95537,3.27044725 56.7849015,3.24910254 56.6238687,3.20670909 C56.4631505,3.1641675 56.3219321,3.09968832 56.2002138,3.01327125 C56.0784955,2.92685418 55.9822532,2.816424 55.911487,2.68183288 C55.8410351,2.54724175 55.8054945,2.3878962 55.8054945,2.20364868 L56.2115363,2.20364868 C56.2115363,2.331125 56.2376413,2.440962 56.2904801,2.53301184 C56.3430045,2.62520982 56.4121984,2.70095454 56.4977471,2.76039382 C56.5832958,2.81998155 56.6833124,2.86385704 56.7974821,2.89216871 C56.9116518,2.92048039 57.0289668,2.9347103 57.1494268,2.9347103 C57.2453547,2.9347103 57.3425403,2.92611316 57.4400409,2.90921516 C57.5378558,2.89216902 57.6256061,2.86311632 57.7039209,2.82205707 C57.7819214,2.78099782 57.8451393,2.72496764 57.8932605,2.65411438 C57.9413816,2.58340955 57.965285,2.49269391 57.965285,2.38211559 C57.965285,2.27731818 57.936035,2.19238345 57.8775346,2.12716295 C57.81872,2.06194245 57.7407195,2.00887695 57.6429046,1.9678177 C57.5454044,1.92675845 57.4346943,1.89340718 57.311718,1.86791173 C57.1884274,1.84241659 57.0629348,1.81618013 56.9352409,1.78935079 C56.8072323,1.7623733 56.68174,1.73124539 56.5587637,1.69581891 C56.4354731,1.66039243 56.324763,1.61370041 56.2272625,1.55559502 C56.1294475,1.49748963 56.0514474,1.42233779 55.9926324,1.33028795 C55.9341321,1.23823811 55.9048821,1.12276834 55.9048821,0.983878643 C55.9048821,0.830907179 55.9379064,0.698539411 56.003955,0.58647875 C56.0700036,0.474714679 56.1580686,0.382516696 56.267835,0.310329536 C56.3776014,0.237994232 56.5021504,0.184187411 56.6421105,0.148760625 C56.7817563,0.113334143 56.925176,0.0956948214 57.0726847,0.0956948214 C57.2378062,0.0956948214 57.3912908,0.114075161 57.5325089,0.150983982 C57.6737273,0.187744661 57.7976469,0.245850054 57.9045827,0.325152018 C58.0112042,0.404453982 58.0954946,0.504359946 58.1571402,0.624721161 C58.2184712,0.745230821 58.2524388,0.889011964 58.2584147,1.05621364 L57.8526873,1.05621364 C57.8284702,0.838022286 57.7451231,0.680010929 57.6023321,0.582328625 Z" id="Shape" fill="#8C191B" fill-rule="nonzero"></path>
                </g>
            </g>
        </g>
    </g>
</svg>